<svg xmlns="http://www.w3.org/2000/svg" width="96" height="96" viewBox="0 0 96 96" fill="none" stroke-linecap="round" stroke-linejoin="round">
  <path d="M17 48l31-27 31 27" stroke="#0D2B4E" stroke-width="4"/>
  <path d="M25 43v35h46V43" stroke="#0D2B4E" stroke-width="4"/>
  <path d="M40 78V60h16v18" stroke="#0D2B4E" stroke-width="4"/>
  <path d="M48 55c-6-5-12-9-12-15a7 7 0 0 1 12-5 7 7 0 0 1 12 5c0 6-6 10-12 15z" stroke="#C99A2E" stroke-width="4"/>
  <path d="M67 72c2-6 9-7 12-3 5 0 7 3 7 7H67" stroke="#C99A2E" stroke-width="4"/>
</svg>
